<?xml version="1.0" encoding="UTF-8" standalone="no"?>
<!DOCTYPE svg PUBLIC "-//W3C//DTD SVG 1.1//EN"
 "http://www.w3.org/Graphics/SVG/1.1/DTD/svg11.dtd">
<!-- Generated by graphviz version 2.38.0 (20140413.2041)
 -->
<!-- Title: controllers_diagram Pages: 1 -->
<svg width="1192pt" height="1232pt"
 viewBox="0.00 0.00 1192.45 1231.68" xmlns="http://www.w3.org/2000/svg" xmlns:xlink="http://www.w3.org/1999/xlink">
<g id="graph0" class="graph" transform="scale(1 1) rotate(0) translate(633.846 597.676)">
<title>controllers_diagram</title>
<polygon fill="none" stroke="none" points="-633.846,634 -633.846,-597.676 558.604,-597.676 558.604,634 -633.846,634"/>
<!-- _diagram_info -->
<g id="node1" class="node"><title>_diagram_info</title>
<text text-anchor="start" x="8" y="566.4" font-family="Times,serif" font-size="13.00">Controllers diagram</text>
<text text-anchor="start" x="8" y="580.4" font-family="Times,serif" font-size="13.00">Date: Jun 03 2016 &#45; 00:29</text>
<text text-anchor="start" x="8" y="594.4" font-family="Times,serif" font-size="13.00">Migration version: 20160528143658</text>
<text text-anchor="start" x="8" y="608.4" font-family="Times,serif" font-size="13.00">Generated by RailRoady 1.4.2</text>
<text text-anchor="start" x="8" y="622.4" font-family="Times,serif" font-size="13.00">http://railroady.prestonlee.com</text>
</g>
<!-- CategoriesController -->
<g id="node2" class="node"><title>CategoriesController</title>
<path fill="none" stroke="black" d="M-597.996,151.886C-597.996,151.886 -491.996,151.886 -491.996,151.886 -485.996,151.886 -479.996,145.886 -479.996,139.886 -479.996,139.886 -479.996,70.8863 -479.996,70.8863 -479.996,64.8863 -485.996,58.8863 -491.996,58.8863 -491.996,58.8863 -597.996,58.8863 -597.996,58.8863 -603.996,58.8863 -609.996,64.8863 -609.996,70.8863 -609.996,70.8863 -609.996,139.886 -609.996,139.886 -609.996,145.886 -603.996,151.886 -597.996,151.886"/>
<text text-anchor="middle" x="-544.996" y="74.0863" font-family="Times,serif" font-size="14.00">CategoriesController</text>
<polyline fill="none" stroke="black" points="-609.996,81.8863 -479.996,81.8863 "/>
<text text-anchor="start" x="-601.996" y="97.0863" font-family="Times,serif" font-size="14.00">index</text>
<polyline fill="none" stroke="black" points="-609.996,104.886 -479.996,104.886 "/>
<polyline fill="none" stroke="black" points="-609.996,128.886 -479.996,128.886 "/>
<text text-anchor="start" x="-601.996" y="144.086" font-family="Times,serif" font-size="14.00">_layout</text>
</g>
<!-- CommentsController -->
<g id="node3" class="node"><title>CommentsController</title>
<path fill="none" stroke="black" d="M-230.882,203.786C-230.882,203.786 -122.882,203.786 -122.882,203.786 -116.882,203.786 -110.882,197.786 -110.882,191.786 -110.882,191.786 -110.882,62.7863 -110.882,62.7863 -110.882,56.7863 -116.882,50.7863 -122.882,50.7863 -122.882,50.7863 -230.882,50.7863 -230.882,50.7863 -236.882,50.7863 -242.882,56.7863 -242.882,62.7863 -242.882,62.7863 -242.882,191.786 -242.882,191.786 -242.882,197.786 -236.882,203.786 -230.882,203.786"/>
<text text-anchor="middle" x="-176.882" y="65.9863" font-family="Times,serif" font-size="14.00">CommentsController</text>
<polyline fill="none" stroke="black" points="-242.882,73.7863 -110.882,73.7863 "/>
<text text-anchor="start" x="-234.882" y="88.9863" font-family="Times,serif" font-size="14.00">create</text>
<text text-anchor="start" x="-234.882" y="103.986" font-family="Times,serif" font-size="14.00">downvote</text>
<text text-anchor="start" x="-234.882" y="118.986" font-family="Times,serif" font-size="14.00">upvote</text>
<polyline fill="none" stroke="black" points="-242.882,126.786 -110.882,126.786 "/>
<polyline fill="none" stroke="black" points="-242.882,150.786 -110.882,150.786 "/>
<text text-anchor="start" x="-234.882" y="165.986" font-family="Times,serif" font-size="14.00">_layout</text>
<text text-anchor="start" x="-234.882" y="180.986" font-family="Times,serif" font-size="14.00">comment_find</text>
<text text-anchor="start" x="-234.882" y="195.986" font-family="Times,serif" font-size="14.00">comment_params</text>
</g>
<!-- SubcategoriesController -->
<g id="node4" class="node"><title>SubcategoriesController</title>
<path fill="none" stroke="black" d="M-286.597,502.346C-286.597,502.346 -162.597,502.346 -162.597,502.346 -156.597,502.346 -150.597,496.346 -150.597,490.346 -150.597,490.346 -150.597,391.346 -150.597,391.346 -150.597,385.346 -156.597,379.346 -162.597,379.346 -162.597,379.346 -286.597,379.346 -286.597,379.346 -292.597,379.346 -298.597,385.346 -298.597,391.346 -298.597,391.346 -298.597,490.346 -298.597,490.346 -298.597,496.346 -292.597,502.346 -286.597,502.346"/>
<text text-anchor="middle" x="-224.597" y="394.546" font-family="Times,serif" font-size="14.00">SubcategoriesController</text>
<polyline fill="none" stroke="black" points="-298.597,402.346 -150.597,402.346 "/>
<text text-anchor="start" x="-290.597" y="417.546" font-family="Times,serif" font-size="14.00">index</text>
<text text-anchor="start" x="-290.597" y="432.546" font-family="Times,serif" font-size="14.00">show</text>
<polyline fill="none" stroke="black" points="-298.597,440.346 -150.597,440.346 "/>
<polyline fill="none" stroke="black" points="-298.597,464.346 -150.597,464.346 "/>
<text text-anchor="start" x="-290.597" y="479.546" font-family="Times,serif" font-size="14.00">_layout</text>
<text text-anchor="start" x="-290.597" y="494.546" font-family="Times,serif" font-size="14.00">current_categories</text>
</g>
<!-- ArticlesController -->
<g id="node5" class="node"><title>ArticlesController</title>
<path fill="none" stroke="black" d="M-615.105,-437.706C-615.105,-437.706 -524.105,-437.706 -524.105,-437.706 -518.105,-437.706 -512.105,-443.706 -512.105,-449.706 -512.105,-449.706 -512.105,-518.706 -512.105,-518.706 -512.105,-524.706 -518.105,-530.706 -524.105,-530.706 -524.105,-530.706 -615.105,-530.706 -615.105,-530.706 -621.105,-530.706 -627.105,-524.706 -627.105,-518.706 -627.105,-518.706 -627.105,-449.706 -627.105,-449.706 -627.105,-443.706 -621.105,-437.706 -615.105,-437.706"/>
<text text-anchor="middle" x="-569.605" y="-515.506" font-family="Times,serif" font-size="14.00">ArticlesController</text>
<polyline fill="none" stroke="black" points="-627.105,-507.706 -512.105,-507.706 "/>
<text text-anchor="start" x="-619.105" y="-492.506" font-family="Times,serif" font-size="14.00">show</text>
<polyline fill="none" stroke="black" points="-627.105,-484.706 -512.105,-484.706 "/>
<polyline fill="none" stroke="black" points="-627.105,-460.706 -512.105,-460.706 "/>
<text text-anchor="start" x="-619.105" y="-445.506" font-family="Times,serif" font-size="14.00">_layout</text>
</g>
<!-- StatsController -->
<g id="node6" class="node"><title>StatsController</title>
<path fill="none" stroke="black" d="M-256.91,-439.686C-256.91,-439.686 -182.91,-439.686 -182.91,-439.686 -176.91,-439.686 -170.91,-445.686 -170.91,-451.686 -170.91,-451.686 -170.91,-520.686 -170.91,-520.686 -170.91,-526.686 -176.91,-532.686 -182.91,-532.686 -182.91,-532.686 -256.91,-532.686 -256.91,-532.686 -262.91,-532.686 -268.91,-526.686 -268.91,-520.686 -268.91,-520.686 -268.91,-451.686 -268.91,-451.686 -268.91,-445.686 -262.91,-439.686 -256.91,-439.686"/>
<text text-anchor="middle" x="-219.91" y="-517.486" font-family="Times,serif" font-size="14.00">StatsController</text>
<polyline fill="none" stroke="black" points="-268.91,-509.686 -170.91,-509.686 "/>
<text text-anchor="start" x="-260.91" y="-494.486" font-family="Times,serif" font-size="14.00">exchange</text>
<polyline fill="none" stroke="black" points="-268.91,-486.686 -170.91,-486.686 "/>
<polyline fill="none" stroke="black" points="-268.91,-462.686 -170.91,-462.686 "/>
<text text-anchor="start" x="-260.91" y="-447.486" font-family="Times,serif" font-size="14.00">_layout</text>
</g>
<!-- UsersController -->
<g id="node7" class="node"><title>UsersController</title>
<path fill="none" stroke="black" d="M-617.821,-88.0084C-617.821,-88.0084 -538.821,-88.0084 -538.821,-88.0084 -532.821,-88.0084 -526.821,-94.0084 -526.821,-100.008 -526.821,-100.008 -526.821,-229.008 -526.821,-229.008 -526.821,-235.008 -532.821,-241.008 -538.821,-241.008 -538.821,-241.008 -617.821,-241.008 -617.821,-241.008 -623.821,-241.008 -629.821,-235.008 -629.821,-229.008 -629.821,-229.008 -629.821,-100.008 -629.821,-100.008 -629.821,-94.0084 -623.821,-88.0084 -617.821,-88.0084"/>
<text text-anchor="middle" x="-578.321" y="-225.808" font-family="Times,serif" font-size="14.00">UsersController</text>
<polyline fill="none" stroke="black" points="-629.821,-218.008 -526.821,-218.008 "/>
<text text-anchor="start" x="-621.821" y="-202.808" font-family="Times,serif" font-size="14.00">edit</text>
<text text-anchor="start" x="-621.821" y="-187.808" font-family="Times,serif" font-size="14.00">index</text>
<text text-anchor="start" x="-621.821" y="-172.808" font-family="Times,serif" font-size="14.00">show</text>
<text text-anchor="start" x="-621.821" y="-157.808" font-family="Times,serif" font-size="14.00">update</text>
<polyline fill="none" stroke="black" points="-629.821,-150.008 -526.821,-150.008 "/>
<polyline fill="none" stroke="black" points="-629.821,-126.008 -526.821,-126.008 "/>
<text text-anchor="start" x="-621.821" y="-110.808" font-family="Times,serif" font-size="14.00">_layout</text>
<text text-anchor="start" x="-621.821" y="-95.8084" font-family="Times,serif" font-size="14.00">user_params</text>
</g>
<!-- BlogsController -->
<g id="node8" class="node"><title>BlogsController</title>
<path fill="none" stroke="black" d="M-617.846,528.544C-617.846,528.544 -537.846,528.544 -537.846,528.544 -531.846,528.544 -525.846,522.544 -525.846,516.544 -525.846,516.544 -525.846,327.544 -525.846,327.544 -525.846,321.544 -531.846,315.544 -537.846,315.544 -537.846,315.544 -617.846,315.544 -617.846,315.544 -623.846,315.544 -629.846,321.544 -629.846,327.544 -629.846,327.544 -629.846,516.544 -629.846,516.544 -629.846,522.544 -623.846,528.544 -617.846,528.544"/>
<text text-anchor="middle" x="-577.846" y="330.744" font-family="Times,serif" font-size="14.00">BlogsController</text>
<polyline fill="none" stroke="black" points="-629.846,338.544 -525.846,338.544 "/>
<text text-anchor="start" x="-621.846" y="353.744" font-family="Times,serif" font-size="14.00">create</text>
<text text-anchor="start" x="-621.846" y="368.744" font-family="Times,serif" font-size="14.00">destroy</text>
<text text-anchor="start" x="-621.846" y="383.744" font-family="Times,serif" font-size="14.00">edit</text>
<text text-anchor="start" x="-621.846" y="398.744" font-family="Times,serif" font-size="14.00">index</text>
<text text-anchor="start" x="-621.846" y="413.744" font-family="Times,serif" font-size="14.00">new</text>
<text text-anchor="start" x="-621.846" y="428.744" font-family="Times,serif" font-size="14.00">show</text>
<text text-anchor="start" x="-621.846" y="443.744" font-family="Times,serif" font-size="14.00">update</text>
<polyline fill="none" stroke="black" points="-629.846,451.544 -525.846,451.544 "/>
<polyline fill="none" stroke="black" points="-629.846,475.544 -525.846,475.544 "/>
<text text-anchor="start" x="-621.846" y="490.744" font-family="Times,serif" font-size="14.00">_layout</text>
<text text-anchor="start" x="-621.846" y="505.744" font-family="Times,serif" font-size="14.00">blog_find</text>
<text text-anchor="start" x="-621.846" y="520.744" font-family="Times,serif" font-size="14.00">blog_params</text>
</g>
<!-- ApplicationController -->
<g id="node9" class="node"><title>ApplicationController</title>
<path fill="none" stroke="black" d="M-277.129,-93.5483C-277.129,-93.5483 -165.129,-93.5483 -165.129,-93.5483 -159.129,-93.5483 -153.129,-99.5483 -153.129,-105.548 -153.129,-105.548 -153.129,-204.548 -153.129,-204.548 -153.129,-210.548 -159.129,-216.548 -165.129,-216.548 -165.129,-216.548 -277.129,-216.548 -277.129,-216.548 -283.129,-216.548 -289.129,-210.548 -289.129,-204.548 -289.129,-204.548 -289.129,-105.548 -289.129,-105.548 -289.129,-99.5483 -283.129,-93.5483 -277.129,-93.5483"/>
<text text-anchor="middle" x="-221.129" y="-201.348" font-family="Times,serif" font-size="14.00">ApplicationController</text>
<polyline fill="none" stroke="black" points="-289.129,-193.548 -153.129,-193.548 "/>
<text text-anchor="start" x="-281.129" y="-178.348" font-family="Times,serif" font-size="14.00">check_if_admin</text>
<text text-anchor="start" x="-281.129" y="-163.348" font-family="Times,serif" font-size="14.00">render_404</text>
<text text-anchor="start" x="-281.129" y="-148.348" font-family="Times,serif" font-size="14.00">valcurs</text>
<polyline fill="none" stroke="black" points="-289.129,-140.548 -153.129,-140.548 "/>
<polyline fill="none" stroke="black" points="-289.129,-116.548 -153.129,-116.548 "/>
<text text-anchor="start" x="-281.129" y="-101.348" font-family="Times,serif" font-size="14.00">_layout</text>
</g>
<!-- ApplicationController&#45;&gt;CategoriesController -->
<g id="edge1" class="edge"><title>ApplicationController&#45;&gt;CategoriesController</title>
<path fill="none" stroke="black" d="M-289.417,-100.135C-348.062,-52.9766 -431.672,14.2579 -487.092,58.8234"/>
</g>
<!-- ApplicationController&#45;&gt;CommentsController -->
<g id="edge2" class="edge"><title>ApplicationController&#45;&gt;CommentsController</title>
<path fill="none" stroke="black" d="M-211.473,-93.4376C-204.837,-51.0894 -195.977,5.44104 -188.886,50.6898"/>
</g>
<!-- ApplicationController&#45;&gt;SubcategoriesController -->
<g id="edge3" class="edge"><title>ApplicationController&#45;&gt;SubcategoriesController</title>
<path fill="none" stroke="black" d="M-230.747,-93.1501C-236.473,-53.1183 -243.174,0.178665 -246.082,47.5863 -253.271,164.802 -241.143,301.746 -232.382,379.187"/>
</g>
<!-- ApplicationController&#45;&gt;ArticlesController -->
<g id="edge4" class="edge"><title>ApplicationController&#45;&gt;ArticlesController</title>
<path fill="none" stroke="black" d="M-286.266,-216.574C-354.131,-280.677 -458.945,-379.681 -520.262,-437.598"/>
</g>
<!-- ApplicationController&#45;&gt;StatsController -->
<g id="edge5" class="edge"><title>ApplicationController&#45;&gt;StatsController</title>
<path fill="none" stroke="black" d="M-220.903,-216.557C-220.665,-281.084 -220.297,-381.074 -220.082,-439.437"/>
</g>
<!-- ApplicationController&#45;&gt;UsersController -->
<g id="edge6" class="edge"><title>ApplicationController&#45;&gt;UsersController</title>
<path fill="none" stroke="black" d="M-289.155,-156.85C-358.38,-158.683 -464.146,-161.484 -526.749,-163.143"/>
</g>
<!-- ApplicationController&#45;&gt;BlogsController -->
<g id="edge7" class="edge"><title>ApplicationController&#45;&gt;BlogsController</title>
<path fill="none" stroke="black" d="M-259.304,-93.2893C-323.469,10.5154 -453.022,220.106 -525.582,337.492"/>
</g>
<!-- DeviseController -->
<g id="node16" class="node"><title>DeviseController</title>
<path fill="none" stroke="black" d="M-9.65902,151.368C-9.65902,151.368 157.341,151.368 157.341,151.368 163.341,151.368 169.341,145.368 169.341,139.368 169.341,139.368 169.341,-228.632 169.341,-228.632 169.341,-234.632 163.341,-240.632 157.341,-240.632 157.341,-240.632 -9.65902,-240.632 -9.65902,-240.632 -15.659,-240.632 -21.659,-234.632 -21.659,-228.632 -21.659,-228.632 -21.659,139.368 -21.659,139.368 -21.659,145.368 -15.659,151.368 -9.65902,151.368"/>
<text text-anchor="middle" x="73.841" y="-225.432" font-family="Times,serif" font-size="14.00">DeviseController</text>
<polyline fill="none" stroke="black" points="-21.659,-217.632 169.341,-217.632 "/>
<text text-anchor="start" x="-13.659" y="-202.432" font-family="Times,serif" font-size="14.00">_prefixes</text>
<polyline fill="none" stroke="black" points="-21.659,-194.632 169.341,-194.632 "/>
<text text-anchor="start" x="-13.659" y="-179.432" font-family="Times,serif" font-size="14.00">assert_is_devise_resource!</text>
<text text-anchor="start" x="-13.659" y="-164.432" font-family="Times,serif" font-size="14.00">clean_up_passwords</text>
<text text-anchor="start" x="-13.659" y="-149.432" font-family="Times,serif" font-size="14.00">devise_i18n_options</text>
<text text-anchor="start" x="-13.659" y="-134.432" font-family="Times,serif" font-size="14.00">devise_mapping</text>
<text text-anchor="start" x="-13.659" y="-119.432" font-family="Times,serif" font-size="14.00">find_message</text>
<text text-anchor="start" x="-13.659" y="-104.432" font-family="Times,serif" font-size="14.00">navigational_formats</text>
<text text-anchor="start" x="-13.659" y="-89.432" font-family="Times,serif" font-size="14.00">require_no_authentication</text>
<text text-anchor="start" x="-13.659" y="-74.432" font-family="Times,serif" font-size="14.00">resource</text>
<text text-anchor="start" x="-13.659" y="-59.432" font-family="Times,serif" font-size="14.00">resource=</text>
<text text-anchor="start" x="-13.659" y="-44.432" font-family="Times,serif" font-size="14.00">resource_class</text>
<text text-anchor="start" x="-13.659" y="-29.432" font-family="Times,serif" font-size="14.00">resource_name</text>
<text text-anchor="start" x="-13.659" y="-14.432" font-family="Times,serif" font-size="14.00">resource_params</text>
<text text-anchor="start" x="-13.659" y="0.568035" font-family="Times,serif" font-size="14.00">respond_with_navigational</text>
<text text-anchor="start" x="-13.659" y="15.568" font-family="Times,serif" font-size="14.00">scope_name</text>
<text text-anchor="start" x="-13.659" y="30.568" font-family="Times,serif" font-size="14.00">set_flash_message</text>
<text text-anchor="start" x="-13.659" y="45.568" font-family="Times,serif" font-size="14.00">set_flash_message!</text>
<text text-anchor="start" x="-13.659" y="60.568" font-family="Times,serif" font-size="14.00">set_minimum_password_length</text>
<text text-anchor="start" x="-13.659" y="75.568" font-family="Times,serif" font-size="14.00">signed_in_resource</text>
<text text-anchor="start" x="-13.659" y="90.568" font-family="Times,serif" font-size="14.00">successfully_sent?</text>
<text text-anchor="start" x="-13.659" y="105.568" font-family="Times,serif" font-size="14.00">translation_scope</text>
<text text-anchor="start" x="-13.659" y="120.568" font-family="Times,serif" font-size="14.00">unknown_action!</text>
<polyline fill="none" stroke="black" points="-21.659,128.368 169.341,128.368 "/>
<text text-anchor="start" x="-13.659" y="143.568" font-family="Times,serif" font-size="14.00">_layout</text>
</g>
<!-- ApplicationController&#45;&gt;DeviseController -->
<g id="edge14" class="edge"><title>ApplicationController&#45;&gt;DeviseController</title>
<path fill="none" stroke="black" d="M-153.087,-129.578C-114.124,-114.993 -64.6191,-96.4618 -21.796,-80.4318"/>
</g>
<!-- Devise::UnlocksController -->
<g id="node10" class="node"><title>Devise::UnlocksController</title>
<path fill="none" stroke="black" d="M-43.2859,458.348C-43.2859,458.348 188.714,458.348 188.714,458.348 194.714,458.348 200.714,452.348 200.714,446.348 200.714,446.348 200.714,318.348 200.714,318.348 200.714,312.348 194.714,306.348 188.714,306.348 188.714,306.348 -43.2859,306.348 -43.2859,306.348 -49.2859,306.348 -55.2859,312.348 -55.2859,318.348 -55.2859,318.348 -55.2859,446.348 -55.2859,446.348 -55.2859,452.348 -49.2859,458.348 -43.2859,458.348"/>
<text text-anchor="middle" x="72.7141" y="321.548" font-family="Times,serif" font-size="14.00">Devise::UnlocksController</text>
<polyline fill="none" stroke="black" points="-55.2859,329.348 200.714,329.348 "/>
<text text-anchor="start" x="-47.2859" y="344.548" font-family="Times,serif" font-size="14.00">create</text>
<text text-anchor="start" x="-47.2859" y="359.548" font-family="Times,serif" font-size="14.00">new</text>
<text text-anchor="start" x="-47.2859" y="374.548" font-family="Times,serif" font-size="14.00">show</text>
<polyline fill="none" stroke="black" points="-55.2859,382.348 200.714,382.348 "/>
<text text-anchor="start" x="-47.2859" y="397.548" font-family="Times,serif" font-size="14.00">after_sending_unlock_instructions_path_for</text>
<text text-anchor="start" x="-47.2859" y="412.548" font-family="Times,serif" font-size="14.00">after_unlock_path_for</text>
<text text-anchor="start" x="-47.2859" y="427.548" font-family="Times,serif" font-size="14.00">translation_scope</text>
<polyline fill="none" stroke="black" points="-55.2859,435.348 200.714,435.348 "/>
<text text-anchor="start" x="-47.2859" y="450.548" font-family="Times,serif" font-size="14.00">_layout</text>
</g>
<!-- Devise::ConfirmationsController -->
<g id="node11" class="node"><title>Devise::ConfirmationsController</title>
<path fill="none" stroke="black" d="M256.053,189.344C256.053,189.344 532.053,189.344 532.053,189.344 538.053,189.344 544.053,183.344 544.053,177.344 544.053,177.344 544.053,49.3445 544.053,49.3445 544.053,43.3445 538.053,37.3445 532.053,37.3445 532.053,37.3445 256.053,37.3445 256.053,37.3445 250.053,37.3445 244.053,43.3445 244.053,49.3445 244.053,49.3445 244.053,177.344 244.053,177.344 244.053,183.344 250.053,189.344 256.053,189.344"/>
<text text-anchor="middle" x="394.053" y="52.5445" font-family="Times,serif" font-size="14.00">Devise::ConfirmationsController</text>
<polyline fill="none" stroke="black" points="244.053,60.3445 544.053,60.3445 "/>
<text text-anchor="start" x="252.053" y="75.5445" font-family="Times,serif" font-size="14.00">create</text>
<text text-anchor="start" x="252.053" y="90.5445" font-family="Times,serif" font-size="14.00">new</text>
<text text-anchor="start" x="252.053" y="105.544" font-family="Times,serif" font-size="14.00">show</text>
<polyline fill="none" stroke="black" points="244.053,113.344 544.053,113.344 "/>
<text text-anchor="start" x="252.053" y="128.544" font-family="Times,serif" font-size="14.00">after_confirmation_path_for</text>
<text text-anchor="start" x="252.053" y="143.544" font-family="Times,serif" font-size="14.00">after_resending_confirmation_instructions_path_for</text>
<text text-anchor="start" x="252.053" y="158.544" font-family="Times,serif" font-size="14.00">translation_scope</text>
<polyline fill="none" stroke="black" points="244.053,166.344 544.053,166.344 "/>
<text text-anchor="start" x="252.053" y="181.544" font-family="Times,serif" font-size="14.00">_layout</text>
</g>
<!-- Devise::SessionsController -->
<g id="node12" class="node"><title>Devise::SessionsController</title>
<path fill="none" stroke="black" d="M338.746,539.179C338.746,539.179 478.746,539.179 478.746,539.179 484.746,539.179 490.746,533.179 490.746,527.179 490.746,527.179 490.746,339.179 490.746,339.179 490.746,333.179 484.746,327.179 478.746,327.179 478.746,327.179 338.746,327.179 338.746,327.179 332.746,327.179 326.746,333.179 326.746,339.179 326.746,339.179 326.746,527.179 326.746,527.179 326.746,533.179 332.746,539.179 338.746,539.179"/>
<text text-anchor="middle" x="408.746" y="342.379" font-family="Times,serif" font-size="14.00">Devise::SessionsController</text>
<polyline fill="none" stroke="black" points="326.746,350.179 490.746,350.179 "/>
<text text-anchor="start" x="334.746" y="365.379" font-family="Times,serif" font-size="14.00">create</text>
<text text-anchor="start" x="334.746" y="380.379" font-family="Times,serif" font-size="14.00">destroy</text>
<text text-anchor="start" x="334.746" y="395.379" font-family="Times,serif" font-size="14.00">new</text>
<polyline fill="none" stroke="black" points="326.746,403.179 490.746,403.179 "/>
<text text-anchor="start" x="334.746" y="418.379" font-family="Times,serif" font-size="14.00">auth_options</text>
<text text-anchor="start" x="334.746" y="433.379" font-family="Times,serif" font-size="14.00">serialize_options</text>
<text text-anchor="start" x="334.746" y="448.379" font-family="Times,serif" font-size="14.00">sign_in_params</text>
<text text-anchor="start" x="334.746" y="463.379" font-family="Times,serif" font-size="14.00">translation_scope</text>
<polyline fill="none" stroke="black" points="326.746,471.179 490.746,471.179 "/>
<text text-anchor="start" x="334.746" y="486.379" font-family="Times,serif" font-size="14.00">_layout</text>
<text text-anchor="start" x="334.746" y="501.379" font-family="Times,serif" font-size="14.00">all_signed_out?</text>
<text text-anchor="start" x="334.746" y="516.379" font-family="Times,serif" font-size="14.00">respond_to_on_destroy</text>
<text text-anchor="start" x="334.746" y="531.379" font-family="Times,serif" font-size="14.00">verify_signed_out_user</text>
</g>
<!-- Devise::RegistrationsController -->
<g id="node13" class="node"><title>Devise::RegistrationsController</title>
<path fill="none" stroke="black" d="M-18.9514,-276.176C-18.9514,-276.176 150.049,-276.176 150.049,-276.176 156.049,-276.176 162.049,-282.176 162.049,-288.176 162.049,-288.176 162.049,-581.176 162.049,-581.176 162.049,-587.176 156.049,-593.176 150.049,-593.176 150.049,-593.176 -18.9514,-593.176 -18.9514,-593.176 -24.9514,-593.176 -30.9514,-587.176 -30.9514,-581.176 -30.9514,-581.176 -30.9514,-288.176 -30.9514,-288.176 -30.9514,-282.176 -24.9514,-276.176 -18.9514,-276.176"/>
<text text-anchor="middle" x="65.5486" y="-577.976" font-family="Times,serif" font-size="14.00">Devise::RegistrationsController</text>
<polyline fill="none" stroke="black" points="-30.9514,-570.176 162.049,-570.176 "/>
<text text-anchor="start" x="-22.9514" y="-554.976" font-family="Times,serif" font-size="14.00">cancel</text>
<text text-anchor="start" x="-22.9514" y="-539.976" font-family="Times,serif" font-size="14.00">create</text>
<text text-anchor="start" x="-22.9514" y="-524.976" font-family="Times,serif" font-size="14.00">destroy</text>
<text text-anchor="start" x="-22.9514" y="-509.976" font-family="Times,serif" font-size="14.00">edit</text>
<text text-anchor="start" x="-22.9514" y="-494.976" font-family="Times,serif" font-size="14.00">new</text>
<text text-anchor="start" x="-22.9514" y="-479.976" font-family="Times,serif" font-size="14.00">update</text>
<polyline fill="none" stroke="black" points="-30.9514,-472.176 162.049,-472.176 "/>
<text text-anchor="start" x="-22.9514" y="-456.976" font-family="Times,serif" font-size="14.00">account_update_params</text>
<text text-anchor="start" x="-22.9514" y="-441.976" font-family="Times,serif" font-size="14.00">after_inactive_sign_up_path_for</text>
<text text-anchor="start" x="-22.9514" y="-426.976" font-family="Times,serif" font-size="14.00">after_sign_up_path_for</text>
<text text-anchor="start" x="-22.9514" y="-411.976" font-family="Times,serif" font-size="14.00">after_update_path_for</text>
<text text-anchor="start" x="-22.9514" y="-396.976" font-family="Times,serif" font-size="14.00">authenticate_scope!</text>
<text text-anchor="start" x="-22.9514" y="-381.976" font-family="Times,serif" font-size="14.00">build_resource</text>
<text text-anchor="start" x="-22.9514" y="-366.976" font-family="Times,serif" font-size="14.00">sign_up</text>
<text text-anchor="start" x="-22.9514" y="-351.976" font-family="Times,serif" font-size="14.00">sign_up_params</text>
<text text-anchor="start" x="-22.9514" y="-336.976" font-family="Times,serif" font-size="14.00">translation_scope</text>
<text text-anchor="start" x="-22.9514" y="-321.976" font-family="Times,serif" font-size="14.00">update_needs_confirmation?</text>
<text text-anchor="start" x="-22.9514" y="-306.976" font-family="Times,serif" font-size="14.00">update_resource</text>
<polyline fill="none" stroke="black" points="-30.9514,-299.176 162.049,-299.176 "/>
<text text-anchor="start" x="-22.9514" y="-283.976" font-family="Times,serif" font-size="14.00">_layout</text>
</g>
<!-- Devise::OmniauthCallbacksController -->
<g id="node14" class="node"><title>Devise::OmniauthCallbacksController</title>
<path fill="none" stroke="black" d="M306.312,-91.3216C306.312,-91.3216 507.312,-91.3216 507.312,-91.3216 513.312,-91.3216 519.312,-97.3216 519.312,-103.322 519.312,-103.322 519.312,-231.322 519.312,-231.322 519.312,-237.322 513.312,-243.322 507.312,-243.322 507.312,-243.322 306.312,-243.322 306.312,-243.322 300.312,-243.322 294.312,-237.322 294.312,-231.322 294.312,-231.322 294.312,-103.322 294.312,-103.322 294.312,-97.3216 300.312,-91.3216 306.312,-91.3216"/>
<text text-anchor="middle" x="406.812" y="-228.122" font-family="Times,serif" font-size="14.00">Devise::OmniauthCallbacksController</text>
<polyline fill="none" stroke="black" points="294.312,-220.322 519.312,-220.322 "/>
<text text-anchor="start" x="302.312" y="-205.122" font-family="Times,serif" font-size="14.00">failure</text>
<text text-anchor="start" x="302.312" y="-190.122" font-family="Times,serif" font-size="14.00">passthru</text>
<polyline fill="none" stroke="black" points="294.312,-182.322 519.312,-182.322 "/>
<text text-anchor="start" x="302.312" y="-167.122" font-family="Times,serif" font-size="14.00">after_omniauth_failure_path_for</text>
<text text-anchor="start" x="302.312" y="-152.122" font-family="Times,serif" font-size="14.00">failed_strategy</text>
<text text-anchor="start" x="302.312" y="-137.122" font-family="Times,serif" font-size="14.00">failure_message</text>
<text text-anchor="start" x="302.312" y="-122.122" font-family="Times,serif" font-size="14.00">translation_scope</text>
<polyline fill="none" stroke="black" points="294.312,-114.322 519.312,-114.322 "/>
<text text-anchor="start" x="302.312" y="-99.1216" font-family="Times,serif" font-size="14.00">_layout</text>
</g>
<!-- Devise::PasswordsController -->
<g id="node15" class="node"><title>Devise::PasswordsController</title>
<path fill="none" stroke="black" d="M264.604,-390.705C264.604,-390.705 542.604,-390.705 542.604,-390.705 548.604,-390.705 554.604,-396.705 554.604,-402.705 554.604,-402.705 554.604,-575.705 554.604,-575.705 554.604,-581.705 548.604,-587.705 542.604,-587.705 542.604,-587.705 264.604,-587.705 264.604,-587.705 258.604,-587.705 252.604,-581.705 252.604,-575.705 252.604,-575.705 252.604,-402.705 252.604,-402.705 252.604,-396.705 258.604,-390.705 264.604,-390.705"/>
<text text-anchor="middle" x="403.604" y="-572.505" font-family="Times,serif" font-size="14.00">Devise::PasswordsController</text>
<polyline fill="none" stroke="black" points="252.604,-564.705 554.604,-564.705 "/>
<text text-anchor="start" x="260.604" y="-549.505" font-family="Times,serif" font-size="14.00">create</text>
<text text-anchor="start" x="260.604" y="-534.505" font-family="Times,serif" font-size="14.00">edit</text>
<text text-anchor="start" x="260.604" y="-519.505" font-family="Times,serif" font-size="14.00">new</text>
<text text-anchor="start" x="260.604" y="-504.505" font-family="Times,serif" font-size="14.00">update</text>
<polyline fill="none" stroke="black" points="252.604,-496.705 554.604,-496.705 "/>
<text text-anchor="start" x="260.604" y="-481.505" font-family="Times,serif" font-size="14.00">after_resetting_password_path_for</text>
<text text-anchor="start" x="260.604" y="-466.505" font-family="Times,serif" font-size="14.00">after_sending_reset_password_instructions_path_for</text>
<text text-anchor="start" x="260.604" y="-451.505" font-family="Times,serif" font-size="14.00">assert_reset_token_passed</text>
<text text-anchor="start" x="260.604" y="-436.505" font-family="Times,serif" font-size="14.00">translation_scope</text>
<text text-anchor="start" x="260.604" y="-421.505" font-family="Times,serif" font-size="14.00">unlockable?</text>
<polyline fill="none" stroke="black" points="252.604,-413.705 554.604,-413.705 "/>
<text text-anchor="start" x="260.604" y="-398.505" font-family="Times,serif" font-size="14.00">_layout</text>
</g>
<!-- DeviseController&#45;&gt;Devise::UnlocksController -->
<g id="edge8" class="edge"><title>DeviseController&#45;&gt;Devise::UnlocksController</title>
<path fill="none" stroke="black" d="M73.3229,151.674C73.1781,206.546 73.0292,262.942 72.9149,306.236"/>
</g>
<!-- DeviseController&#45;&gt;Devise::ConfirmationsController -->
<g id="edge9" class="edge"><title>DeviseController&#45;&gt;Devise::ConfirmationsController</title>
<path fill="none" stroke="black" d="M169.481,2.5522C192.886,14.0989 218.497,26.734 243.78,39.2073"/>
</g>
<!-- DeviseController&#45;&gt;Devise::SessionsController -->
<g id="edge10" class="edge"><title>DeviseController&#45;&gt;Devise::SessionsController</title>
<path fill="none" stroke="black" d="M169.363,91.6499C221.758,166.401 285.752,257.702 334.388,327.092"/>
</g>
<!-- DeviseController&#45;&gt;Devise::RegistrationsController -->
<g id="edge11" class="edge"><title>DeviseController&#45;&gt;Devise::RegistrationsController</title>
<path fill="none" stroke="black" d="M69.6705,-240.797C69.4184,-252.653 69.1665,-264.504 68.9184,-276.174"/>
</g>
<!-- DeviseController&#45;&gt;Devise::OmniauthCallbacksController -->
<g id="edge12" class="edge"><title>DeviseController&#45;&gt;Devise::OmniauthCallbacksController</title>
<path fill="none" stroke="black" d="M169.703,-79.9543C208.608,-94.2894 253.829,-110.952 294.283,-125.858"/>
</g>
<!-- DeviseController&#45;&gt;Devise::PasswordsController -->
<g id="edge13" class="edge"><title>DeviseController&#45;&gt;Devise::PasswordsController</title>
<path fill="none" stroke="black" d="M169.443,-173.519C220.795,-242.749 283.105,-326.753 330.535,-390.696"/>
</g>
</g>
</svg>
