<?xml version="1.0" encoding="UTF-8" standalone="no"?>
<!DOCTYPE svg PUBLIC "-//W3C//DTD SVG 1.1//EN"
 "http://www.w3.org/Graphics/SVG/1.1/DTD/svg11.dtd">
<!-- Generated by graphviz version 2.38.0 (20140413.2041)
 -->
<!-- Title: models_diagram Pages: 1 -->
<svg width="1186pt" height="1394pt"
 viewBox="0.00 0.00 1186.00 1394.00" xmlns="http://www.w3.org/2000/svg" xmlns:xlink="http://www.w3.org/1999/xlink">
<g id="graph0" class="graph" transform="scale(1 1) rotate(0) translate(4 1390)">
<title>models_diagram</title>
<polygon fill="none" stroke="none" points="-4,4 -4,-1390 1182,-1390 1182,4 -4,4"/>
<!-- _diagram_info -->
<g id="node1" class="node"><title>_diagram_info</title>
<text text-anchor="start" x="289.5" y="-1371.6" font-family="Times,serif" font-size="13.00">Models diagram</text>
<text text-anchor="start" x="289.5" y="-1357.6" font-family="Times,serif" font-size="13.00">Date: Jun 03 2016 &#45; 00:29</text>
<text text-anchor="start" x="289.5" y="-1343.6" font-family="Times,serif" font-size="13.00">Migration version: 20160528143658</text>
<text text-anchor="start" x="289.5" y="-1329.6" font-family="Times,serif" font-size="13.00">Generated by RailRoady 1.4.2</text>
<text text-anchor="start" x="289.5" y="-1315.6" font-family="Times,serif" font-size="13.00">http://railroady.prestonlee.com</text>
</g>
<!-- Article -->
<g id="node2" class="node"><title>Article</title>
<path fill="none" stroke="black" d="M542.5,-290.5C542.5,-290.5 700.5,-290.5 700.5,-290.5 706.5,-290.5 712.5,-296.5 712.5,-302.5 712.5,-302.5 712.5,-504.5 712.5,-504.5 712.5,-510.5 706.5,-516.5 700.5,-516.5 700.5,-516.5 542.5,-516.5 542.5,-516.5 536.5,-516.5 530.5,-510.5 530.5,-504.5 530.5,-504.5 530.5,-302.5 530.5,-302.5 530.5,-296.5 536.5,-290.5 542.5,-290.5"/>
<text text-anchor="middle" x="621.5" y="-501.3" font-family="Times,serif" font-size="14.00">Article</text>
<polyline fill="none" stroke="black" points="530.5,-493.5 712.5,-493.5 "/>
<text text-anchor="start" x="538.5" y="-478.3" font-family="Times,serif" font-size="14.00">id :int(11)</text>
<text text-anchor="start" x="538.5" y="-463.3" font-family="Times,serif" font-size="14.00">category_id :mediumint(9)</text>
<text text-anchor="start" x="538.5" y="-448.3" font-family="Times,serif" font-size="14.00">subcategory_id :mediumint(9)</text>
<text text-anchor="start" x="538.5" y="-433.3" font-family="Times,serif" font-size="14.00">tittle :varchar(150)</text>
<text text-anchor="start" x="538.5" y="-418.3" font-family="Times,serif" font-size="14.00">article_link :varchar(150)</text>
<text text-anchor="start" x="538.5" y="-403.3" font-family="Times,serif" font-size="14.00">body :mediumtext</text>
<text text-anchor="start" x="538.5" y="-388.3" font-family="Times,serif" font-size="14.00">main_image :varchar(150)</text>
<text text-anchor="start" x="538.5" y="-373.3" font-family="Times,serif" font-size="14.00">enable_comments :tinyint(1)</text>
<text text-anchor="start" x="538.5" y="-358.3" font-family="Times,serif" font-size="14.00">main_article :tinyint(1)</text>
<text text-anchor="start" x="538.5" y="-343.3" font-family="Times,serif" font-size="14.00">created_at :datetime</text>
<text text-anchor="start" x="538.5" y="-328.3" font-family="Times,serif" font-size="14.00">updated_at :datetime</text>
<text text-anchor="start" x="538.5" y="-313.3" font-family="Times,serif" font-size="14.00">count_comments :int(6)</text>
<text text-anchor="start" x="538.5" y="-298.3" font-family="Times,serif" font-size="14.00">region_id :mediumint(9)</text>
</g>
<!-- Comment -->
<g id="node10" class="node"><title>Comment</title>
<path fill="none" stroke="black" d="M316,-87.5C316,-87.5 461,-87.5 461,-87.5 467,-87.5 473,-93.5 473,-99.5 473,-99.5 473,-226.5 473,-226.5 473,-232.5 467,-238.5 461,-238.5 461,-238.5 316,-238.5 316,-238.5 310,-238.5 304,-232.5 304,-226.5 304,-226.5 304,-99.5 304,-99.5 304,-93.5 310,-87.5 316,-87.5"/>
<text text-anchor="middle" x="388.5" y="-223.3" font-family="Times,serif" font-size="14.00">Comment</text>
<polyline fill="none" stroke="black" points="304,-215.5 473,-215.5 "/>
<text text-anchor="start" x="312" y="-200.3" font-family="Times,serif" font-size="14.00">id :int(11)</text>
<text text-anchor="start" x="312" y="-185.3" font-family="Times,serif" font-size="14.00">user_id :int(11)</text>
<text text-anchor="start" x="312" y="-170.3" font-family="Times,serif" font-size="14.00">article_id :int(11)</text>
<text text-anchor="start" x="312" y="-155.3" font-family="Times,serif" font-size="14.00">body :varchar(255)</text>
<text text-anchor="start" x="312" y="-140.3" font-family="Times,serif" font-size="14.00">created_at :datetime</text>
<text text-anchor="start" x="312" y="-125.3" font-family="Times,serif" font-size="14.00">updated_at :datetime</text>
<text text-anchor="start" x="312" y="-110.3" font-family="Times,serif" font-size="14.00">count_votes_like :int(11)</text>
<text text-anchor="start" x="312" y="-95.3" font-family="Times,serif" font-size="14.00">count_votes_dislike :int(11)</text>
</g>
<!-- Article&#45;&gt;Comment -->
<g id="edge1" class="edge"><title>Article&#45;&gt;Comment</title>
<path fill="none" stroke="#294cb3" d="M524.509,-293.119C523.504,-292.072 522.5,-291.032 521.5,-290 507.331,-275.374 491.931,-260.183 476.801,-245.624"/>
<ellipse fill="none" stroke="#294cb3" cx="527.533" cy="-296.288" rx="4.00002" ry="4.00002"/>
<polygon fill="#294cb3" stroke="#294cb3" points="476.622,-245.452 472.515,-235.284 473.012,-241.993 469.402,-238.533 469.402,-238.533 469.402,-238.533 473.012,-241.993 466.288,-241.782 476.622,-245.452 476.622,-245.452"/>
</g>
<!-- Region -->
<g id="node3" class="node"><title>Region</title>
<path fill="none" stroke="black" d="M557.5,-934.5C557.5,-934.5 691.5,-934.5 691.5,-934.5 697.5,-934.5 703.5,-940.5 703.5,-946.5 703.5,-946.5 703.5,-1013.5 703.5,-1013.5 703.5,-1019.5 697.5,-1025.5 691.5,-1025.5 691.5,-1025.5 557.5,-1025.5 557.5,-1025.5 551.5,-1025.5 545.5,-1019.5 545.5,-1013.5 545.5,-1013.5 545.5,-946.5 545.5,-946.5 545.5,-940.5 551.5,-934.5 557.5,-934.5"/>
<text text-anchor="middle" x="624.5" y="-1010.3" font-family="Times,serif" font-size="14.00">Region</text>
<polyline fill="none" stroke="black" points="545.5,-1002.5 703.5,-1002.5 "/>
<text text-anchor="start" x="553.5" y="-987.3" font-family="Times,serif" font-size="14.00">id :int(11)</text>
<text text-anchor="start" x="553.5" y="-972.3" font-family="Times,serif" font-size="14.00">region_name :varchar(20)</text>
<text text-anchor="start" x="553.5" y="-957.3" font-family="Times,serif" font-size="14.00">created_at :datetime</text>
<text text-anchor="start" x="553.5" y="-942.3" font-family="Times,serif" font-size="14.00">updated_at :datetime</text>
</g>
<!-- Region&#45;&gt;Article -->
<g id="edge3" class="edge"><title>Region&#45;&gt;Article</title>
<path fill="none" stroke="#c7f06b" d="M624.225,-926.304C623.755,-836.341 622.787,-650.869 622.14,-527.053"/>
<ellipse fill="none" stroke="#c7f06b" cx="624.246" cy="-930.398" rx="4" ry="4"/>
<polygon fill="#c7f06b" stroke="#c7f06b" points="622.139,-526.76 626.586,-516.736 622.113,-521.76 622.087,-516.76 622.087,-516.76 622.087,-516.76 622.113,-521.76 617.587,-516.784 622.139,-526.76 622.139,-526.76"/>
</g>
<!-- Catsubcategory -->
<g id="node4" class="node"><title>Catsubcategory</title>
<path fill="none" stroke="black" d="M342.5,-335.5C342.5,-335.5 500.5,-335.5 500.5,-335.5 506.5,-335.5 512.5,-341.5 512.5,-347.5 512.5,-347.5 512.5,-459.5 512.5,-459.5 512.5,-465.5 506.5,-471.5 500.5,-471.5 500.5,-471.5 342.5,-471.5 342.5,-471.5 336.5,-471.5 330.5,-465.5 330.5,-459.5 330.5,-459.5 330.5,-347.5 330.5,-347.5 330.5,-341.5 336.5,-335.5 342.5,-335.5"/>
<text text-anchor="middle" x="421.5" y="-456.3" font-family="Times,serif" font-size="14.00">Catsubcategory</text>
<polyline fill="none" stroke="black" points="330.5,-448.5 512.5,-448.5 "/>
<text text-anchor="start" x="338.5" y="-433.3" font-family="Times,serif" font-size="14.00">id :int(11)</text>
<text text-anchor="start" x="338.5" y="-418.3" font-family="Times,serif" font-size="14.00">category_id :mediumint(9)</text>
<text text-anchor="start" x="338.5" y="-403.3" font-family="Times,serif" font-size="14.00">subcategory_id :mediumint(9)</text>
<text text-anchor="start" x="338.5" y="-388.3" font-family="Times,serif" font-size="14.00">menu_show :tinyint(1)</text>
<text text-anchor="start" x="338.5" y="-373.3" font-family="Times,serif" font-size="14.00">priority :int(11)</text>
<text text-anchor="start" x="338.5" y="-358.3" font-family="Times,serif" font-size="14.00">created_at :datetime</text>
<text text-anchor="start" x="338.5" y="-343.3" font-family="Times,serif" font-size="14.00">updated_at :datetime</text>
</g>
<!-- AdminUser -->
<g id="node5" class="node"><title>AdminUser</title>
<path fill="none" stroke="black" d="M796.5,-1044.5C796.5,-1044.5 986.5,-1044.5 986.5,-1044.5 992.5,-1044.5 998.5,-1050.5 998.5,-1056.5 998.5,-1056.5 998.5,-1258.5 998.5,-1258.5 998.5,-1264.5 992.5,-1270.5 986.5,-1270.5 986.5,-1270.5 796.5,-1270.5 796.5,-1270.5 790.5,-1270.5 784.5,-1264.5 784.5,-1258.5 784.5,-1258.5 784.5,-1056.5 784.5,-1056.5 784.5,-1050.5 790.5,-1044.5 796.5,-1044.5"/>
<text text-anchor="middle" x="891.5" y="-1255.3" font-family="Times,serif" font-size="14.00">AdminUser</text>
<polyline fill="none" stroke="black" points="784.5,-1247.5 998.5,-1247.5 "/>
<text text-anchor="start" x="792.5" y="-1232.3" font-family="Times,serif" font-size="14.00">id :int(11)</text>
<text text-anchor="start" x="792.5" y="-1217.3" font-family="Times,serif" font-size="14.00">email :varchar(255)</text>
<text text-anchor="start" x="792.5" y="-1202.3" font-family="Times,serif" font-size="14.00">encrypted_password :varchar(255)</text>
<text text-anchor="start" x="792.5" y="-1187.3" font-family="Times,serif" font-size="14.00">reset_password_token :varchar(255)</text>
<text text-anchor="start" x="792.5" y="-1172.3" font-family="Times,serif" font-size="14.00">reset_password_sent_at :datetime</text>
<text text-anchor="start" x="792.5" y="-1157.3" font-family="Times,serif" font-size="14.00">remember_created_at :datetime</text>
<text text-anchor="start" x="792.5" y="-1142.3" font-family="Times,serif" font-size="14.00">sign_in_count :int(11)</text>
<text text-anchor="start" x="792.5" y="-1127.3" font-family="Times,serif" font-size="14.00">current_sign_in_at :datetime</text>
<text text-anchor="start" x="792.5" y="-1112.3" font-family="Times,serif" font-size="14.00">last_sign_in_at :datetime</text>
<text text-anchor="start" x="792.5" y="-1097.3" font-family="Times,serif" font-size="14.00">current_sign_in_ip :varchar(255)</text>
<text text-anchor="start" x="792.5" y="-1082.3" font-family="Times,serif" font-size="14.00">last_sign_in_ip :varchar(255)</text>
<text text-anchor="start" x="792.5" y="-1067.3" font-family="Times,serif" font-size="14.00">created_at :datetime</text>
<text text-anchor="start" x="792.5" y="-1052.3" font-family="Times,serif" font-size="14.00">updated_at :datetime</text>
</g>
<!-- Blog -->
<g id="node6" class="node"><title>Blog</title>
<path fill="none" stroke="black" d="M122.5,-328C122.5,-328 262.5,-328 262.5,-328 268.5,-328 274.5,-334 274.5,-340 274.5,-340 274.5,-467 274.5,-467 274.5,-473 268.5,-479 262.5,-479 262.5,-479 122.5,-479 122.5,-479 116.5,-479 110.5,-473 110.5,-467 110.5,-467 110.5,-340 110.5,-340 110.5,-334 116.5,-328 122.5,-328"/>
<text text-anchor="middle" x="192.5" y="-463.8" font-family="Times,serif" font-size="14.00">Blog</text>
<polyline fill="none" stroke="black" points="110.5,-456 274.5,-456 "/>
<text text-anchor="start" x="118.5" y="-440.8" font-family="Times,serif" font-size="14.00">id :int(11)</text>
<text text-anchor="start" x="118.5" y="-425.8" font-family="Times,serif" font-size="14.00">user_id :int(11)</text>
<text text-anchor="start" x="118.5" y="-410.8" font-family="Times,serif" font-size="14.00">category_id :int(11)</text>
<text text-anchor="start" x="118.5" y="-395.8" font-family="Times,serif" font-size="14.00">post_title :varchar(255)</text>
<text text-anchor="start" x="118.5" y="-380.8" font-family="Times,serif" font-size="14.00">post_body :varchar(12255)</text>
<text text-anchor="start" x="118.5" y="-365.8" font-family="Times,serif" font-size="14.00">created_at :datetime</text>
<text text-anchor="start" x="118.5" y="-350.8" font-family="Times,serif" font-size="14.00">updated_at :datetime</text>
<text text-anchor="start" x="118.5" y="-335.8" font-family="Times,serif" font-size="14.00">post_theme :varchar(2000)</text>
</g>
<!-- User -->
<g id="node7" class="node"><title>User</title>
<path fill="none" stroke="black" d="M97.5003,-554.5C97.5003,-554.5 287.5,-554.5 287.5,-554.5 293.5,-554.5 299.5,-560.5 299.5,-566.5 299.5,-566.5 299.5,-903.5 299.5,-903.5 299.5,-909.5 293.5,-915.5 287.5,-915.5 287.5,-915.5 97.5003,-915.5 97.5003,-915.5 91.5003,-915.5 85.5003,-909.5 85.5003,-903.5 85.5003,-903.5 85.5003,-566.5 85.5003,-566.5 85.5003,-560.5 91.5003,-554.5 97.5003,-554.5"/>
<text text-anchor="middle" x="192.5" y="-900.3" font-family="Times,serif" font-size="14.00">User</text>
<polyline fill="none" stroke="black" points="85.5003,-892.5 299.5,-892.5 "/>
<text text-anchor="start" x="93.5003" y="-877.3" font-family="Times,serif" font-size="14.00">id :int(11)</text>
<text text-anchor="start" x="93.5003" y="-862.3" font-family="Times,serif" font-size="14.00">email :varchar(255)</text>
<text text-anchor="start" x="93.5003" y="-847.3" font-family="Times,serif" font-size="14.00">encrypted_password :varchar(255)</text>
<text text-anchor="start" x="93.5003" y="-832.3" font-family="Times,serif" font-size="14.00">is_admin :tinyint(1)</text>
<text text-anchor="start" x="93.5003" y="-817.3" font-family="Times,serif" font-size="14.00">is_ban :tinyint(1)</text>
<text text-anchor="start" x="93.5003" y="-802.3" font-family="Times,serif" font-size="14.00">reset_password_token :varchar(255)</text>
<text text-anchor="start" x="93.5003" y="-787.3" font-family="Times,serif" font-size="14.00">reset_password_sent_at :datetime</text>
<text text-anchor="start" x="93.5003" y="-772.3" font-family="Times,serif" font-size="14.00">remember_created_at :datetime</text>
<text text-anchor="start" x="93.5003" y="-757.3" font-family="Times,serif" font-size="14.00">sign_in_count :int(11)</text>
<text text-anchor="start" x="93.5003" y="-742.3" font-family="Times,serif" font-size="14.00">current_sign_in_at :datetime</text>
<text text-anchor="start" x="93.5003" y="-727.3" font-family="Times,serif" font-size="14.00">last_sign_in_at :datetime</text>
<text text-anchor="start" x="93.5003" y="-712.3" font-family="Times,serif" font-size="14.00">current_sign_in_ip :varchar(255)</text>
<text text-anchor="start" x="93.5003" y="-697.3" font-family="Times,serif" font-size="14.00">last_sign_in_ip :varchar(255)</text>
<text text-anchor="start" x="93.5003" y="-682.3" font-family="Times,serif" font-size="14.00">created_at :datetime</text>
<text text-anchor="start" x="93.5003" y="-667.3" font-family="Times,serif" font-size="14.00">updated_at :datetime</text>
<text text-anchor="start" x="93.5003" y="-652.3" font-family="Times,serif" font-size="14.00">surname :varchar(255)</text>
<text text-anchor="start" x="93.5003" y="-637.3" font-family="Times,serif" font-size="14.00">name :varchar(255)</text>
<text text-anchor="start" x="93.5003" y="-622.3" font-family="Times,serif" font-size="14.00">middle_name :varchar(255)</text>
<text text-anchor="start" x="93.5003" y="-607.3" font-family="Times,serif" font-size="14.00">birthday :date</text>
<text text-anchor="start" x="93.5003" y="-592.3" font-family="Times,serif" font-size="14.00">city :varchar(255)</text>
<text text-anchor="start" x="93.5003" y="-577.3" font-family="Times,serif" font-size="14.00">photo :varchar(255)</text>
<text text-anchor="start" x="93.5003" y="-562.3" font-family="Times,serif" font-size="14.00">count_posts :int(11)</text>
</g>
<!-- User&#45;&gt;Blog -->
<g id="edge10" class="edge"><title>User&#45;&gt;Blog</title>
<path fill="none" stroke="#4c4918" d="M192.5,-546.249C192.5,-526.444 192.5,-507.091 192.5,-489.366"/>
<ellipse fill="none" stroke="#4c4918" cx="192.5" cy="-550.306" rx="4" ry="4"/>
<polygon fill="#4c4918" stroke="#4c4918" points="192.5,-489.127 197,-479.127 192.5,-484.127 192.5,-479.127 192.5,-479.127 192.5,-479.127 192.5,-484.127 188,-479.127 192.5,-489.127 192.5,-489.127"/>
</g>
<!-- User&#45;&gt;Comment -->
<g id="edge8" class="edge"><title>User&#45;&gt;Comment</title>
<path fill="none" stroke="#f8f703" d="M274.176,-546.652C277.537,-536.698 280.675,-526.773 283.5,-517 311.914,-418.733 288.615,-386.863 321.5,-290 326.302,-275.855 332.559,-261.384 339.319,-247.525"/>
<ellipse fill="none" stroke="#f8f703" cx="272.862" cy="-550.485" rx="4.00001" ry="4.00001"/>
<polygon fill="#f8f703" stroke="#f8f703" points="339.351,-247.46 347.848,-240.527 341.587,-242.987 343.823,-238.515 343.823,-238.515 343.823,-238.515 341.587,-242.987 339.798,-236.503 339.351,-247.46 339.351,-247.46"/>
</g>
<!-- ActsAsVotable::Vote -->
<g id="node13" class="node"><title>ActsAsVotable::Vote</title>
<ellipse fill="none" stroke="black" cx="166.5" cy="-18" rx="86.3847" ry="18"/>
<text text-anchor="middle" x="166.5" y="-14.3" font-family="Times,serif" font-size="14.00">ActsAsVotable::Vote</text>
</g>
<!-- User&#45;&gt;ActsAsVotable::Vote -->
<g id="edge9" class="edge"><title>User&#45;&gt;ActsAsVotable::Vote</title>
<path fill="none" stroke="#71a1ae" d="M108.604,-546.367C105.857,-536.542 103.455,-526.718 101.5,-517 65.6939,-339.027 131.126,-121.135 156.806,-45.9815"/>
<ellipse fill="none" stroke="#71a1ae" cx="109.769" cy="-550.401" rx="4.00001" ry="4.00001"/>
<polygon fill="#71a1ae" stroke="#71a1ae" points="156.872,-45.7905 164.402,-37.8187 158.511,-41.0669 160.151,-36.3433 160.151,-36.3433 160.151,-36.3433 158.511,-41.0669 155.899,-34.8678 156.872,-45.7905 156.872,-45.7905"/>
<text text-anchor="middle" x="130.5" y="-260.8" font-family="Times,serif" font-size="14.00">votes_for</text>
</g>
<!-- Subcategory -->
<g id="node8" class="node"><title>Subcategory</title>
<path fill="none" stroke="black" d="M368,-1104.5C368,-1104.5 533,-1104.5 533,-1104.5 539,-1104.5 545,-1110.5 545,-1116.5 545,-1116.5 545,-1198.5 545,-1198.5 545,-1204.5 539,-1210.5 533,-1210.5 533,-1210.5 368,-1210.5 368,-1210.5 362,-1210.5 356,-1204.5 356,-1198.5 356,-1198.5 356,-1116.5 356,-1116.5 356,-1110.5 362,-1104.5 368,-1104.5"/>
<text text-anchor="middle" x="450.5" y="-1195.3" font-family="Times,serif" font-size="14.00">Subcategory</text>
<polyline fill="none" stroke="black" points="356,-1187.5 545,-1187.5 "/>
<text text-anchor="start" x="364" y="-1172.3" font-family="Times,serif" font-size="14.00">id :int(11)</text>
<text text-anchor="start" x="364" y="-1157.3" font-family="Times,serif" font-size="14.00">subcategory_name :varchar(50)</text>
<text text-anchor="start" x="364" y="-1142.3" font-family="Times,serif" font-size="14.00">subcategory_link :varchar(20)</text>
<text text-anchor="start" x="364" y="-1127.3" font-family="Times,serif" font-size="14.00">created_at :datetime</text>
<text text-anchor="start" x="364" y="-1112.3" font-family="Times,serif" font-size="14.00">updated_at :datetime</text>
</g>
<!-- Subcategory&#45;&gt;Article -->
<g id="edge14" class="edge"><title>Subcategory&#45;&gt;Article</title>
<path fill="none" stroke="#4bcab8" d="M461.21,-1096.5C472.604,-1047.71 494.93,-979.711 536.5,-934 548.536,-920.766 562.38,-930.751 572.5,-916 594.032,-884.617 608.631,-667.774 615.973,-526.68"/>
<ellipse fill="none" stroke="#4bcab8" cx="460.291" cy="-1100.56" rx="4.00001" ry="4.00001"/>
<polygon fill="#4bcab8" stroke="#4bcab8" points="615.975,-526.642 620.983,-516.887 616.232,-521.649 616.489,-516.656 616.489,-516.656 616.489,-516.656 616.232,-521.649 611.995,-516.424 615.975,-526.642 615.975,-526.642"/>
</g>
<!-- Subcategory&#45;&gt;Catsubcategory -->
<g id="edge12" class="edge"><title>Subcategory&#45;&gt;Catsubcategory</title>
<path fill="none" stroke="#4ba84e" d="M429.205,-1096.5C413.318,-1048.4 392.961,-978.799 384.5,-916 363.019,-756.552 365.031,-713.707 384.5,-554 387.416,-530.08 392.865,-504.472 398.702,-481.331"/>
<ellipse fill="none" stroke="#4ba84e" cx="430.549" cy="-1100.53" rx="4.00001" ry="4.00001"/>
<polygon fill="#4ba84e" stroke="#4ba84e" points="398.72,-481.259 405.578,-472.702 399.97,-476.418 401.22,-471.576 401.22,-471.576 401.22,-471.576 399.97,-476.418 396.863,-470.451 398.72,-481.259 398.72,-481.259"/>
</g>
<!-- Category -->
<g id="node11" class="node"><title>Category</title>
<path fill="none" stroke="black" d="M405.5,-667C405.5,-667 551.5,-667 551.5,-667 557.5,-667 563.5,-673 563.5,-679 563.5,-679 563.5,-791 563.5,-791 563.5,-797 557.5,-803 551.5,-803 551.5,-803 405.5,-803 405.5,-803 399.5,-803 393.5,-797 393.5,-791 393.5,-791 393.5,-679 393.5,-679 393.5,-673 399.5,-667 405.5,-667"/>
<text text-anchor="middle" x="478.5" y="-787.8" font-family="Times,serif" font-size="14.00">Category</text>
<polyline fill="none" stroke="black" points="393.5,-780 563.5,-780 "/>
<text text-anchor="start" x="401.5" y="-764.8" font-family="Times,serif" font-size="14.00">id :int(11)</text>
<text text-anchor="start" x="401.5" y="-749.8" font-family="Times,serif" font-size="14.00">category_name :varchar(50)</text>
<text text-anchor="start" x="401.5" y="-734.8" font-family="Times,serif" font-size="14.00">category_link :varchar(20)</text>
<text text-anchor="start" x="401.5" y="-719.8" font-family="Times,serif" font-size="14.00">priority :smallint(6)</text>
<text text-anchor="start" x="401.5" y="-704.8" font-family="Times,serif" font-size="14.00">menu_show :tinyint(1)</text>
<text text-anchor="start" x="401.5" y="-689.8" font-family="Times,serif" font-size="14.00">created_at :datetime</text>
<text text-anchor="start" x="401.5" y="-674.8" font-family="Times,serif" font-size="14.00">updated_at :datetime</text>
</g>
<!-- Subcategory&#45;&gt;Category -->
<g id="edge13" class="edge"><title>Subcategory&#45;&gt;Category</title>
<path fill="none" stroke="#9a131f" d="M454.666,-1093.94C459.642,-1019.21 467.966,-894.196 473.344,-813.441"/>
<polygon fill="#9a131f" stroke="#9a131f" points="454.654,-1094.12 449.5,-1103.79 454.322,-1099.1 453.99,-1104.09 453.99,-1104.09 453.99,-1104.09 454.322,-1099.1 458.48,-1104.39 454.654,-1094.12 454.654,-1094.12"/>
<polygon fill="#9a131f" stroke="#9a131f" points="473.352,-813.308 478.507,-803.629 473.685,-808.319 474.017,-803.33 474.017,-803.33 474.017,-803.33 473.685,-808.319 469.527,-803.031 473.352,-813.308 473.352,-813.308"/>
</g>
<!-- ArticleImage -->
<g id="node9" class="node"><title>ArticleImage</title>
<path fill="none" stroke="black" d="M1029,-1112C1029,-1112 1166,-1112 1166,-1112 1172,-1112 1178,-1118 1178,-1124 1178,-1124 1178,-1191 1178,-1191 1178,-1197 1172,-1203 1166,-1203 1166,-1203 1029,-1203 1029,-1203 1023,-1203 1017,-1197 1017,-1191 1017,-1191 1017,-1124 1017,-1124 1017,-1118 1023,-1112 1029,-1112"/>
<text text-anchor="middle" x="1097.5" y="-1187.8" font-family="Times,serif" font-size="14.00">ArticleImage</text>
<polyline fill="none" stroke="black" points="1017,-1180 1178,-1180 "/>
<text text-anchor="start" x="1025" y="-1164.8" font-family="Times,serif" font-size="14.00">id :int(11)</text>
<text text-anchor="start" x="1025" y="-1149.8" font-family="Times,serif" font-size="14.00">article_imgs :varchar(250)</text>
<text text-anchor="start" x="1025" y="-1134.8" font-family="Times,serif" font-size="14.00">created_at :datetime</text>
<text text-anchor="start" x="1025" y="-1119.8" font-family="Times,serif" font-size="14.00">updated_at :datetime</text>
</g>
<!-- Comment&#45;&gt;ActsAsVotable::Vote -->
<g id="edge17" class="edge"><title>Comment&#45;&gt;ActsAsVotable::Vote</title>
<path fill="none" stroke="#6b51cb" d="M296.871,-102.978C262.818,-81.0425 226.255,-57.4906 200.542,-40.9275"/>
<ellipse fill="none" stroke="#6b51cb" cx="300.576" cy="-105.364" rx="4.00002" ry="4.00002"/>
<polygon fill="#6b51cb" stroke="#6b51cb" points="200.328,-40.7898 194.358,-31.5914 196.124,-38.0821 191.921,-35.3745 191.921,-35.3745 191.921,-35.3745 196.124,-38.0821 189.484,-39.1576 200.328,-40.7898 200.328,-40.7898"/>
<text text-anchor="middle" x="263.5" y="-57.8" font-family="Times,serif" font-size="14.00">votes_for</text>
</g>
<!-- Category&#45;&gt;Article -->
<g id="edge20" class="edge"><title>Category&#45;&gt;Article</title>
<path fill="none" stroke="#999337" d="M510.852,-659.455C527.975,-620.001 549.427,-570.571 568.873,-525.763"/>
<ellipse fill="none" stroke="#999337" cx="509.203" cy="-663.254" rx="4.00002" ry="4.00002"/>
<polygon fill="#999337" stroke="#999337" points="568.881,-525.746 576.99,-518.364 570.871,-521.159 572.862,-516.572 572.862,-516.572 572.862,-516.572 570.871,-521.159 568.734,-514.781 568.881,-525.746 568.881,-525.746"/>
</g>
<!-- Category&#45;&gt;Catsubcategory -->
<g id="edge19" class="edge"><title>Category&#45;&gt;Catsubcategory</title>
<path fill="none" stroke="#465380" d="M465.485,-658.764C456.331,-605.849 444.117,-535.242 434.883,-481.862"/>
<ellipse fill="none" stroke="#465380" cx="466.215" cy="-662.982" rx="4.00001" ry="4.00001"/>
<polygon fill="#465380" stroke="#465380" points="434.841,-481.618 437.571,-470.998 433.989,-476.692 433.136,-471.765 433.136,-471.765 433.136,-471.765 433.989,-476.692 428.702,-472.532 434.841,-481.618 434.841,-481.618"/>
</g>
<!-- Category&#45;&gt;Blog -->
<g id="edge21" class="edge"><title>Category&#45;&gt;Blog</title>
<path fill="none" stroke="#094bd6" d="M414.937,-660.769C370.272,-609.31 310.462,-540.404 264.112,-487.003"/>
<ellipse fill="none" stroke="#094bd6" cx="417.657" cy="-663.903" rx="4.00002" ry="4.00002"/>
<polygon fill="#094bd6" stroke="#094bd6" points="263.929,-486.793 260.772,-476.291 260.652,-483.017 257.374,-479.241 257.374,-479.241 257.374,-479.241 260.652,-483.017 253.976,-482.191 263.929,-486.793 263.929,-486.793"/>
</g>
<!-- ActiveRecord::Base -->
<g id="node12" class="node"><title>ActiveRecord::Base</title>
<ellipse fill="none" stroke="black" cx="594.5" cy="-1347" rx="81.4863" ry="18"/>
<text text-anchor="middle" x="594.5" y="-1343.3" font-family="Times,serif" font-size="14.00">ActiveRecord::Base</text>
</g>
<!-- ActiveRecord::Base&#45;&gt;Article -->
<g id="edge2" class="edge"><title>ActiveRecord::Base&#45;&gt;Article</title>
<path fill="none" stroke="black" d="M602.762,-1328.85C624.889,-1281.84 685.122,-1146.35 704.5,-1026 733.076,-848.535 690.256,-641.432 656.254,-516.759"/>
</g>
<!-- ActiveRecord::Base&#45;&gt;Region -->
<g id="edge4" class="edge"><title>ActiveRecord::Base&#45;&gt;Region</title>
<path fill="none" stroke="black" d="M595.907,-1328.88C600.35,-1274.83 614.179,-1106.58 620.841,-1025.53"/>
</g>
<!-- ActiveRecord::Base&#45;&gt;Catsubcategory -->
<g id="edge5" class="edge"><title>ActiveRecord::Base&#45;&gt;Catsubcategory</title>
<path fill="none" stroke="black" d="M561.247,-1330.38C544.484,-1322.91 523.687,-1314.26 504.5,-1308 436.349,-1285.76 392,-1327.21 347.5,-1271 310.247,-1223.95 310.202,-822.594 364.5,-554 370.114,-526.229 380.304,-496.854 390.531,-471.563"/>
</g>
<!-- ActiveRecord::Base&#45;&gt;AdminUser -->
<g id="edge6" class="edge"><title>ActiveRecord::Base&#45;&gt;AdminUser</title>
<path fill="none" stroke="black" d="M654.893,-1334.94C690.514,-1326.5 735.35,-1312.41 770.5,-1290 779.526,-1284.25 788.316,-1277.66 796.771,-1270.56"/>
</g>
<!-- ActiveRecord::Base&#45;&gt;Blog -->
<g id="edge7" class="edge"><title>ActiveRecord::Base&#45;&gt;Blog</title>
<path fill="none" stroke="black" d="M563.662,-1330.19C546.653,-1322.19 524.899,-1313.12 504.5,-1308 436.137,-1290.85 242.958,-1316.93 189.5,-1271 -55.1832,-1060.76 -28.0183,-859.199 76.5003,-554 85.6537,-527.272 101.748,-501.63 119.087,-479.361"/>
</g>
<!-- ActiveRecord::Base&#45;&gt;User -->
<g id="edge11" class="edge"><title>ActiveRecord::Base&#45;&gt;User</title>
<path fill="none" stroke="black" d="M563.658,-1330.21C546.648,-1322.21 524.895,-1313.14 504.5,-1308 463.159,-1297.59 345.415,-1318.27 313.5,-1290 209.679,-1198.05 183.481,-1039.53 180.914,-915.558"/>
</g>
<!-- ActiveRecord::Base&#45;&gt;Subcategory -->
<g id="edge15" class="edge"><title>ActiveRecord::Base&#45;&gt;Subcategory</title>
<path fill="none" stroke="black" d="M581.467,-1329.03C561.113,-1302.53 520.951,-1250.23 490.441,-1210.51"/>
</g>
<!-- ActiveRecord::Base&#45;&gt;ArticleImage -->
<g id="edge16" class="edge"><title>ActiveRecord::Base&#45;&gt;ArticleImage</title>
<path fill="none" stroke="black" d="M667.622,-1338.93C770.379,-1327.96 951.252,-1304.55 1007.5,-1271 1034.78,-1254.73 1057.14,-1226.91 1072.75,-1203.01"/>
</g>
<!-- ActiveRecord::Base&#45;&gt;Comment -->
<g id="edge18" class="edge"><title>ActiveRecord::Base&#45;&gt;Comment</title>
<path fill="none" stroke="black" d="M623.463,-1330.01C670.06,-1301.91 756.5,-1238.95 756.5,-1158.5 756.5,-1158.5 756.5,-1158.5 756.5,-402.5 756.5,-350.136 757.398,-328.123 721.5,-290 656.031,-220.472 548.296,-188.973 473.158,-174.926"/>
</g>
<!-- ActiveRecord::Base&#45;&gt;Category -->
<g id="edge22" class="edge"><title>ActiveRecord::Base&#45;&gt;Category</title>
<path fill="none" stroke="black" d="M594.448,-1328.81C593.836,-1281.89 588.959,-1148.19 554.5,-1044 551.627,-1035.31 547.771,-1034.55 544.5,-1026 516.269,-952.216 498.208,-863.041 488.245,-803.227"/>
</g>
</g>
</svg>
