<?xml version="1.0" encoding="UTF-8" standalone="no"?>
<!DOCTYPE svg PUBLIC "-//W3C//DTD SVG 1.1//EN"
 "http://www.w3.org/Graphics/SVG/1.1/DTD/svg11.dtd">
<!-- Generated by graphviz version 2.38.0 (20140413.2041)
 -->
<!-- Title: models_diagram Pages: 1 -->
<svg width="726pt" height="514pt"
 viewBox="0.00 0.00 726.29 514.00" xmlns="http://www.w3.org/2000/svg" xmlns:xlink="http://www.w3.org/1999/xlink">
<g id="graph0" class="graph" transform="scale(1 1) rotate(0) translate(4 510)">
<title>models_diagram</title>
<polygon fill="none" stroke="none" points="-4,4 -4,-510 722.287,-510 722.287,4 -4,4"/>
<!-- _diagram_info -->
<g id="node1" class="node"><title>_diagram_info</title>
<text text-anchor="start" x="37.4423" y="-491.6" font-family="Times,serif" font-size="13.00">Models diagram</text>
<text text-anchor="start" x="37.4423" y="-477.6" font-family="Times,serif" font-size="13.00">Date: Jun 03 2016 &#45; 00:29</text>
<text text-anchor="start" x="37.4423" y="-463.6" font-family="Times,serif" font-size="13.00">Migration version: 20160528143658</text>
<text text-anchor="start" x="37.4423" y="-449.6" font-family="Times,serif" font-size="13.00">Generated by RailRoady 1.4.2</text>
<text text-anchor="start" x="37.4423" y="-435.6" font-family="Times,serif" font-size="13.00">http://railroady.prestonlee.com</text>
</g>
<!-- Article -->
<g id="node2" class="node"><title>Article</title>
<ellipse fill="none" stroke="black" cx="360.442" cy="-192" rx="35.194" ry="18"/>
<text text-anchor="middle" x="360.442" y="-188.3" font-family="Times,serif" font-size="14.00">Article</text>
</g>
<!-- Comment -->
<g id="node10" class="node"><title>Comment</title>
<ellipse fill="none" stroke="black" cx="206.442" cy="-105" rx="46.2923" ry="18"/>
<text text-anchor="middle" x="206.442" y="-101.3" font-family="Times,serif" font-size="14.00">Comment</text>
</g>
<!-- Article&#45;&gt;Comment -->
<g id="edge1" class="edge"><title>Article&#45;&gt;Comment</title>
<path fill="none" stroke="#b12f5d" d="M330.055,-174.228C304.417,-160.077 267.725,-139.825 240.979,-125.062"/>
<ellipse fill="none" stroke="#b12f5d" cx="333.885" cy="-176.342" rx="4.00002" ry="4.00002"/>
<polygon fill="#b12f5d" stroke="#b12f5d" points="240.722,-124.921 234.142,-116.149 236.345,-122.505 231.967,-120.089 231.967,-120.089 231.967,-120.089 236.345,-122.505 229.793,-124.028 240.722,-124.921 240.722,-124.921"/>
</g>
<!-- Region -->
<g id="node3" class="node"><title>Region</title>
<ellipse fill="none" stroke="black" cx="363.442" cy="-319" rx="36.2938" ry="18"/>
<text text-anchor="middle" x="363.442" y="-315.3" font-family="Times,serif" font-size="14.00">Region</text>
</g>
<!-- Region&#45;&gt;Article -->
<g id="edge3" class="edge"><title>Region&#45;&gt;Article</title>
<path fill="none" stroke="#e4182a" d="M362.837,-292.759C362.333,-271.791 361.619,-242.012 361.101,-220.454"/>
<ellipse fill="none" stroke="#e4182a" cx="362.935" cy="-296.883" rx="4" ry="4"/>
<polygon fill="#e4182a" stroke="#e4182a" points="361.098,-220.31 365.357,-210.205 360.978,-215.312 360.858,-210.313 360.858,-210.313 360.858,-210.313 360.978,-215.312 356.359,-210.421 361.098,-220.31 361.098,-220.31"/>
</g>
<!-- Catsubcategory -->
<g id="node4" class="node"><title>Catsubcategory</title>
<ellipse fill="none" stroke="black" cx="241.442" cy="-192" rx="65.7887" ry="18"/>
<text text-anchor="middle" x="241.442" y="-188.3" font-family="Times,serif" font-size="14.00">Catsubcategory</text>
</g>
<!-- AdminUser -->
<g id="node5" class="node"><title>AdminUser</title>
<ellipse fill="none" stroke="black" cx="532.442" cy="-373" rx="51.9908" ry="18"/>
<text text-anchor="middle" x="532.442" y="-369.3" font-family="Times,serif" font-size="14.00">AdminUser</text>
</g>
<!-- Blog -->
<g id="node6" class="node"><title>Blog</title>
<ellipse fill="none" stroke="black" cx="91.4423" cy="-192" rx="27.8951" ry="18"/>
<text text-anchor="middle" x="91.4423" y="-188.3" font-family="Times,serif" font-size="14.00">Blog</text>
</g>
<!-- User -->
<g id="node7" class="node"><title>User</title>
<ellipse fill="none" stroke="black" cx="99.4423" cy="-265" rx="27.0966" ry="18"/>
<text text-anchor="middle" x="99.4423" y="-261.3" font-family="Times,serif" font-size="14.00">User</text>
</g>
<!-- User&#45;&gt;Blog -->
<g id="edge10" class="edge"><title>User&#45;&gt;Blog</title>
<path fill="none" stroke="#a858b6" d="M96.6019,-238.791C95.9304,-232.832 95.2113,-226.45 94.5295,-220.399"/>
<ellipse fill="none" stroke="#a858b6" cx="97.0578" cy="-242.838" rx="4.00001" ry="4.00001"/>
<polygon fill="#a858b6" stroke="#a858b6" points="94.4808,-219.966 97.8328,-209.525 93.921,-214.997 93.3611,-210.029 93.3611,-210.029 93.3611,-210.029 93.921,-214.997 88.8894,-210.533 94.4808,-219.966 94.4808,-219.966"/>
</g>
<!-- User&#45;&gt;Comment -->
<g id="edge8" class="edge"><title>User&#45;&gt;Comment</title>
<path fill="none" stroke="#b17f4f" d="M114.711,-241.454C134.515,-212.21 168.956,-161.354 189.533,-130.969"/>
<ellipse fill="none" stroke="#b17f4f" cx="112.336" cy="-244.961" rx="4.00002" ry="4.00002"/>
<polygon fill="#b17f4f" stroke="#b17f4f" points="189.586,-130.89 198.92,-125.133 192.39,-126.75 195.194,-122.61 195.194,-122.61 195.194,-122.61 192.39,-126.75 191.468,-120.087 189.586,-130.89 189.586,-130.89"/>
</g>
<!-- ActsAsVotable::Vote -->
<g id="node13" class="node"><title>ActsAsVotable::Vote</title>
<ellipse fill="none" stroke="black" cx="86.4423" cy="-18" rx="86.3847" ry="18"/>
<text text-anchor="middle" x="86.4423" y="-14.3" font-family="Times,serif" font-size="14.00">ActsAsVotable::Vote</text>
</g>
<!-- User&#45;&gt;ActsAsVotable::Vote -->
<g id="edge9" class="edge"><title>User&#45;&gt;ActsAsVotable::Vote</title>
<path fill="none" stroke="#0e7a91" d="M77.448,-244.464C68.4882,-235.05 59.1452,-222.99 54.4423,-210 34.0065,-153.555 57.6418,-82.9373 73.8147,-45.3722"/>
<ellipse fill="none" stroke="#0e7a91" cx="80.4011" cy="-247.421" rx="4.00002" ry="4.00002"/>
<polygon fill="#0e7a91" stroke="#0e7a91" points="73.8642,-45.261 82.0452,-37.9588 75.8995,-40.694 77.9349,-36.127 77.9349,-36.127 77.9349,-36.127 75.8995,-40.694 73.8246,-34.2952 73.8642,-45.261 73.8642,-45.261"/>
<text text-anchor="middle" x="74.4423" y="-144.8" font-family="Times,serif" font-size="14.00">votes_for</text>
</g>
<!-- Subcategory -->
<g id="node8" class="node"><title>Subcategory</title>
<ellipse fill="none" stroke="black" cx="239.442" cy="-373" rx="54.6905" ry="18"/>
<text text-anchor="middle" x="239.442" y="-369.3" font-family="Times,serif" font-size="14.00">Subcategory</text>
</g>
<!-- Subcategory&#45;&gt;Article -->
<g id="edge14" class="edge"><title>Subcategory&#45;&gt;Article</title>
<path fill="none" stroke="#3f000a" d="M262.032,-349.767C278.709,-332.564 301.232,-307.599 317.442,-283 330.769,-262.777 342.369,-237.787 350.151,-219.276"/>
<ellipse fill="none" stroke="#3f000a" cx="258.976" cy="-352.883" rx="4.00002" ry="4.00002"/>
<polygon fill="#3f000a" stroke="#3f000a" points="350.166,-219.238 358.128,-211.697 352.066,-214.613 353.965,-209.988 353.965,-209.988 353.965,-209.988 352.066,-214.613 349.802,-208.278 350.166,-219.238 350.166,-219.238"/>
</g>
<!-- Subcategory&#45;&gt;Catsubcategory -->
<g id="edge12" class="edge"><title>Subcategory&#45;&gt;Catsubcategory</title>
<path fill="none" stroke="#a37108" d="M227.791,-347.278C217.392,-321.98 205.008,-281.589 213.442,-247 215.794,-237.356 220.194,-227.513 224.821,-218.919"/>
<ellipse fill="none" stroke="#a37108" cx="229.495" cy="-351.257" rx="4.00002" ry="4.00002"/>
<polygon fill="#a37108" stroke="#a37108" points="224.873,-218.828 233.749,-212.388 227.358,-214.489 229.844,-210.151 229.844,-210.151 229.844,-210.151 227.358,-214.489 225.939,-207.914 224.873,-218.828 224.873,-218.828"/>
</g>
<!-- Category -->
<g id="node11" class="node"><title>Category</title>
<ellipse fill="none" stroke="black" cx="265.442" cy="-265" rx="42.7926" ry="18"/>
<text text-anchor="middle" x="265.442" y="-261.3" font-family="Times,serif" font-size="14.00">Category</text>
</g>
<!-- Subcategory&#45;&gt;Category -->
<g id="edge13" class="edge"><title>Subcategory&#45;&gt;Category</title>
<path fill="none" stroke="#f0db72" d="M246.031,-345.137C249.962,-329.11 254.937,-308.829 258.866,-292.811"/>
<polygon fill="#f0db72" stroke="#f0db72" points="246.002,-345.257 239.249,-353.897 244.811,-350.113 243.62,-354.969 243.62,-354.969 243.62,-354.969 244.811,-350.113 247.99,-356.041 246.002,-345.257 246.002,-345.257"/>
<polygon fill="#f0db72" stroke="#f0db72" points="258.893,-292.701 265.646,-284.061 260.084,-287.845 261.275,-282.988 261.275,-282.988 261.275,-282.988 260.084,-287.845 256.905,-281.916 258.893,-292.701 258.893,-292.701"/>
</g>
<!-- ArticleImage -->
<g id="node9" class="node"><title>ArticleImage</title>
<ellipse fill="none" stroke="black" cx="660.442" cy="-373" rx="57.6901" ry="18"/>
<text text-anchor="middle" x="660.442" y="-369.3" font-family="Times,serif" font-size="14.00">ArticleImage</text>
</g>
<!-- Comment&#45;&gt;ActsAsVotable::Vote -->
<g id="edge17" class="edge"><title>Comment&#45;&gt;ActsAsVotable::Vote</title>
<path fill="none" stroke="#e2e4e1" d="M178.502,-84.2091C160.435,-71.4117 136.878,-54.725 118.116,-41.4354"/>
<ellipse fill="none" stroke="#e2e4e1" cx="182.001" cy="-86.6873" rx="4.00002" ry="4.00002"/>
<polygon fill="#e2e4e1" stroke="#e2e4e1" points="118.03,-41.3748 112.471,-31.9225 113.95,-38.4847 109.87,-35.5946 109.87,-35.5946 109.87,-35.5946 113.95,-38.4847 107.269,-39.2667 118.03,-41.3748 118.03,-41.3748"/>
<text text-anchor="middle" x="179.442" y="-57.8" font-family="Times,serif" font-size="14.00">votes_for</text>
</g>
<!-- Category&#45;&gt;Article -->
<g id="edge20" class="edge"><title>Category&#45;&gt;Article</title>
<path fill="none" stroke="#47e59d" d="M292.042,-244.12C304.888,-234.52 320.281,-223.016 333.208,-213.354"/>
<ellipse fill="none" stroke="#47e59d" cx="288.793" cy="-246.548" rx="4.00002" ry="4.00002"/>
<polygon fill="#47e59d" stroke="#47e59d" points="333.286,-213.296 343.99,-210.914 337.291,-210.302 341.296,-207.309 341.296,-207.309 341.296,-207.309 337.291,-210.302 338.602,-203.705 333.286,-213.296 333.286,-213.296"/>
</g>
<!-- Category&#45;&gt;Catsubcategory -->
<g id="edge19" class="edge"><title>Category&#45;&gt;Catsubcategory</title>
<path fill="none" stroke="#7d2f18" d="M257.019,-239.08C254.887,-232.774 252.59,-225.979 250.432,-219.594"/>
<ellipse fill="none" stroke="#7d2f18" cx="258.352" cy="-243.024" rx="4.00001" ry="4.00001"/>
<polygon fill="#7d2f18" stroke="#7d2f18" points="250.401,-219.502 251.462,-208.588 248.8,-214.766 247.199,-210.029 247.199,-210.029 247.199,-210.029 248.8,-214.766 242.936,-211.47 250.401,-219.502 250.401,-219.502"/>
</g>
<!-- Category&#45;&gt;Blog -->
<g id="edge21" class="edge"><title>Category&#45;&gt;Blog</title>
<path fill="none" stroke="#e95f1d" d="M227.997,-248.721C197.046,-236.091 153.541,-218.339 124.015,-206.291"/>
<ellipse fill="none" stroke="#e95f1d" cx="231.827" cy="-250.283" rx="4.00001" ry="4.00001"/>
<polygon fill="#e95f1d" stroke="#e95f1d" points="123.834,-206.218 116.276,-198.273 119.205,-204.328 114.576,-202.439 114.576,-202.439 114.576,-202.439 119.205,-204.328 112.875,-206.606 123.834,-206.218 123.834,-206.218"/>
</g>
<!-- ActiveRecord::Base -->
<g id="node12" class="node"><title>ActiveRecord::Base</title>
<ellipse fill="none" stroke="black" cx="342.442" cy="-467" rx="81.4863" ry="18"/>
<text text-anchor="middle" x="342.442" y="-463.3" font-family="Times,serif" font-size="14.00">ActiveRecord::Base</text>
</g>
<!-- ActiveRecord::Base&#45;&gt;Article -->
<g id="edge2" class="edge"><title>ActiveRecord::Base&#45;&gt;Article</title>
<path fill="none" stroke="black" d="M353,-448.869C367.091,-424.896 391.328,-379.497 400.442,-337 410.454,-290.32 385.41,-236.352 370.53,-209.687"/>
</g>
<!-- ActiveRecord::Base&#45;&gt;Region -->
<g id="edge4" class="edge"><title>ActiveRecord::Base&#45;&gt;Region</title>
<path fill="none" stroke="black" d="M344.892,-448.966C348.917,-420.984 356.886,-365.583 360.943,-337.378"/>
</g>
<!-- ActiveRecord::Base&#45;&gt;Catsubcategory -->
<g id="edge5" class="edge"><title>ActiveRecord::Base&#45;&gt;Catsubcategory</title>
<path fill="none" stroke="black" d="M306.045,-450.839C258.077,-430.687 179.273,-396.92 175.442,-391 136.465,-330.767 197.262,-245.262 226.812,-209.61"/>
</g>
<!-- ActiveRecord::Base&#45;&gt;AdminUser -->
<g id="edge6" class="edge"><title>ActiveRecord::Base&#45;&gt;AdminUser</title>
<path fill="none" stroke="black" d="M378.05,-450.767C403.017,-439.881 437.048,-424.628 466.442,-410 479.88,-403.313 494.564,-395.369 506.662,-388.647"/>
</g>
<!-- ActiveRecord::Base&#45;&gt;Blog -->
<g id="edge7" class="edge"><title>ActiveRecord::Base&#45;&gt;Blog</title>
<path fill="none" stroke="black" d="M310.635,-450.334C293.712,-442.576 272.34,-433.68 252.442,-428 187.659,-409.507 149.339,-442.107 105.442,-391 62.0048,-340.427 47.6488,-311.769 63.4423,-247 66.7947,-233.252 74.3092,-219.101 80.7101,-208.736"/>
</g>
<!-- ActiveRecord::Base&#45;&gt;User -->
<g id="edge11" class="edge"><title>ActiveRecord::Base&#45;&gt;User</title>
<path fill="none" stroke="black" d="M310.622,-450.379C293.696,-442.634 272.324,-433.735 252.442,-428 204.844,-414.269 179.64,-442.718 142.442,-410 105.219,-377.26 99.5631,-313.797 99.1206,-283.25"/>
</g>
<!-- ActiveRecord::Base&#45;&gt;Subcategory -->
<g id="edge15" class="edge"><title>ActiveRecord::Base&#45;&gt;Subcategory</title>
<path fill="none" stroke="black" d="M323.551,-449.126C304.734,-432.319 276.051,-406.699 257.524,-390.15"/>
</g>
<!-- ActiveRecord::Base&#45;&gt;ArticleImage -->
<g id="edge16" class="edge"><title>ActiveRecord::Base&#45;&gt;ArticleImage</title>
<path fill="none" stroke="black" d="M389.707,-452.326C451.993,-434.306 560.537,-402.903 619.495,-385.846"/>
</g>
<!-- ActiveRecord::Base&#45;&gt;Comment -->
<g id="edge18" class="edge"><title>ActiveRecord::Base&#45;&gt;Comment</title>
<path fill="none" stroke="black" d="M382.778,-451.238C414.172,-436.846 452.442,-411.593 452.442,-374 452.442,-374 452.442,-374 452.442,-191 452.442,-148.525 319.773,-122.594 249.292,-111.815"/>
</g>
<!-- ActiveRecord::Base&#45;&gt;Category -->
<g id="edge22" class="edge"><title>ActiveRecord::Base&#45;&gt;Category</title>
<path fill="none" stroke="black" d="M336.839,-448.948C329.554,-427.049 316.244,-387.936 303.442,-355 293.582,-329.631 280.984,-300.73 273.062,-282.925"/>
</g>
</g>
</svg>
